<?xml version="1.0" encoding="UTF-8"?>
<svg xmlns="http://www.w3.org/2000/svg" xmlns:xlink="http://www.w3.org/1999/xlink" width="720pt" height="720pt" viewBox="0 0 720 720" version="1.1">
<g id="surface1">
<path style=" stroke:none;fill-rule:nonzero;fill:rgb(13.729858%,12.159729%,12.548828%);fill-opacity:1;" d="M 391.527344 208.894531 C 382.351563 208.144531 373.125 207.441406 364.09375 205.789063 C 357.660156 204.609375 355.039063 200.710938 354.953125 195.304688 C 354.835938 187.96875 360.300781 183.082031 367.605469 184.09375 C 369.375 184.339844 371.199219 184.71875 372.8125 185.445313 C 390.445313 193.390625 408.042969 201.414063 425.636719 209.4375 C 426.214844 209.699219 426.671875 210.214844 428.050781 211.28125 C 415.148438 210.457031 403.324219 209.855469 391.527344 208.894531 M 521.609375 276.6875 C 523.417969 273.113281 526.5 272.878906 529.40625 274.304688 C 535.015625 277.058594 540.371094 280.34375 545.832031 283.410156 C 545.75 283.878906 545.671875 284.347656 545.59375 284.816406 C 540.394531 285.109375 535.195313 285.578125 529.992188 285.597656 C 527.933594 285.609375 525.664063 285 523.863281 284 C 521.03125 282.429688 519.96875 279.925781 521.609375 276.6875 M 506.863281 310.730469 C 518.789063 316.957031 527.695313 326.050781 536.191406 336.445313 C 526.421875 345.273438 514.984375 346.980469 503.03125 345.257813 C 481.128906 342.101563 462.472656 332.167969 446.984375 316.390625 C 433.734375 302.894531 420.558594 289.324219 404.40625 279.171875 C 392.808594 271.882813 380.699219 265.847656 366.761719 264.527344 C 365.910156 264.449219 365.085938 264.070313 364.171875 263.808594 C 379.398438 242.636719 408.585938 237.222656 431.738281 252.195313 C 441.082031 258.234375 448.792969 266.765625 457.414063 273.960938 C 468.394531 283.121094 479.566406 292.050781 490.625 301.121094 C 495.746094 305.320313 496.445313 311.253906 495.011719 316.902344 C 493.765625 321.820313 490.71875 326.28125 488.457031 330.976563 C 497.863281 327.847656 502.351563 319.472656 506.863281 310.730469 M 551.195313 591.945313 C 553.457031 583.769531 556.3125 575.648438 557.910156 567.285156 C 568.582031 511.371094 545.890625 450.964844 493.894531 418.75 C 470.046875 403.972656 443.921875 395.714844 416.234375 392.8125 C 400.203125 391.132813 383.992188 391.039063 367.855469 390.4375 C 340.828125 389.429688 314.335938 386.03125 290.046875 372.996094 C 275.28125 365.070313 262.960938 354.511719 256.941406 338.316406 C 252.625 326.707031 253.183594 315.5 262.324219 306.070313 C 245.371094 284 250.25 262.175781 262.933594 245.753906 C 261.789063 250.324219 260.542969 254.292969 259.8125 258.355469 C 254.355469 288.714844 280.316406 316.335938 310.609375 311.707031 C 317.101563 310.714844 323.125 306.398438 329.265625 303.414063 C 337.382813 299.472656 345.046875 294.167969 353.546875 291.539063 C 367.988281 287.074219 381.6875 291.601563 395.046875 297.671875 C 419.414063 308.746094 437.65625 326.253906 450.9375 349.242188 C 452.109375 351.269531 453.324219 353.273438 454.765625 355.714844 C 464.859375 349.84375 474.792969 352.953125 484.621094 356.238281 C 498.972656 361.039063 513.25 362.808594 527.417969 355.820313 C 532.761719 353.1875 537.945313 350.226563 543.476563 347.265625 C 553.316406 359.300781 558.523438 373.644531 562.21875 388.722656 C 566.546875 406.375 571.679688 423.746094 582.519531 438.738281 C 591.886719 451.695313 604.796875 457.863281 620.863281 457.855469 C 602.644531 452.105469 589.167969 441.402344 582.652344 421.941406 C 587.152344 423.769531 590.761719 425.914063 594.640625 426.664063 C 602.210938 428.128906 609.992188 429.984375 617.578125 429.601563 C 639.214844 428.511719 654.378906 401.40625 644.746094 382.046875 C 644.164063 380.875 643.308594 379.839844 642.144531 378.847656 C 646.242188 387.195313 645.589844 395.320313 641.832031 403.449219 C 634.800781 418.679688 620.996094 425.382813 604.613281 421.316406 C 588.113281 417.222656 577.105469 407.691406 573.097656 390.519531 C 570.675781 380.148438 567.605469 369.878906 564.054688 359.835938 C 558.835938 345.082031 552.265625 330.972656 539.613281 319.953125 C 550.960938 317.796875 560.386719 319.316406 567.246094 328.617188 C 577.144531 319.050781 581.453125 306.042969 572.578125 293.445313 C 573.210938 292.734375 573.890625 291.957031 574.589844 291.191406 C 583.332031 281.679688 579.332031 267.445313 566.816406 264.175781 C 562.28125 262.988281 557.542969 262.035156 552.878906 261.964844 C 531.335938 261.632813 512.082031 254.304688 494.050781 243.207031 C 483.867188 236.933594 473.796875 230.449219 463.921875 223.707031 C 460.882813 221.628906 458.648438 218.371094 455.542969 215.132813 C 457.332031 214.457031 458.246094 214.050781 459.199219 213.761719 C 466.578125 211.519531 471.570313 205.34375 471.632813 198.34375 C 471.699219 191.347656 466.367188 184.519531 458.242188 182.414063 C 451.78125 180.742188 445.046875 180.128906 438.480469 178.828125 C 417.613281 174.699219 397.980469 167.65625 381.273438 153.953125 C 379.171875 152.230469 377.132813 150.378906 375.335938 148.351563 C 366.804688 138.734375 362.339844 128.320313 369.632813 115.652344 C 361.046875 120.839844 357.046875 128.972656 353.78125 138.449219 C 342.855469 127.933594 329.105469 123.746094 316.019531 118.234375 C 308.386719 115.015625 301.640625 110.535156 296.675781 103.691406 C 289.433594 93.710938 289.46875 81.402344 296.835938 72.46875 C 304.195313 63.535156 318.167969 60.261719 328.492188 65.992188 C 332.847656 68.410156 336.070313 72.859375 340.28125 76.835938 C 338.613281 71.648438 337.027344 66.71875 335.125 60.8125 C 374.417969 57.558594 412.832031 61.136719 450.253906 73.121094 C 524.460938 96.890625 581.921875 142.292969 620.929688 209.707031 C 699.171875 344.90625 658.015625 507.28125 551.195313 591.945313 M 278.089844 582.835938 C 275.746094 596.136719 269.394531 606.847656 255.410156 610.6875 C 242.496094 614.234375 230.164063 610.695313 218.328125 605.855469 C 189.578125 594.097656 164.507813 576.433594 141.84375 555.53125 C 128.789063 543.488281 115.53125 531.078125 105.277344 516.75 C 95.066406 502.484375 87.34375 486.089844 80.566406 469.785156 C 65.425781 433.355469 58.214844 394.949219 59.683594 355.601563 C 63.871094 243.195313 114.65625 157.730469 210.707031 99.179688 C 211.304688 98.816406 211.976563 98.574219 213.445313 97.886719 C 207.199219 116.183594 214.371094 128.996094 227.929688 140.152344 C 224.183594 140.503906 220.789063 140.375 217.648438 141.199219 C 210.460938 143.085938 205.132813 147.855469 201.214844 153.921875 C 194.824219 163.828125 188.984375 174.089844 182.621094 184.015625 C 178.613281 190.269531 174.320313 196.371094 169.730469 202.207031 C 158.0625 217.058594 135.75 221.875 123.308594 201.804688 C 123.398438 213.734375 126.332031 219.1875 139.382813 231.664063 C 127.03125 239.203125 123.875 251.648438 123.867188 264.503906 C 123.847656 285.183594 125.382813 305.867188 126.195313 326.550781 C 126.671875 338.753906 124.8125 350.425781 117.921875 360.875 C 108.453125 375.234375 95.953125 380.027344 79.554688 375.566406 C 86.046875 385.105469 101.078125 389.246094 123.410156 387.484375 C 122.738281 389.9375 121.914063 392.226563 121.5 394.585938 C 119.972656 403.253906 121.882813 410.988281 127.324219 418.09375 C 138.882813 433.179688 153.996094 444.207031 168.964844 455.445313 C 179.941406 463.683594 189.726563 473.085938 191.65625 487.421875 C 192.753906 495.589844 192.914063 504.148438 191.753906 512.285156 C 190.070313 524.097656 182.402344 532.019531 171.589844 536.859375 C 169.828125 537.648438 168.046875 538.386719 165.9375 539.292969 C 184.425781 542.425781 208.019531 537.15625 219.433594 510.167969 C 220.304688 514.511719 220.886719 518.078125 221.746094 521.574219 C 223.777344 529.847656 228.179688 536.617188 235.480469 541.105469 C 242.429688 545.378906 249.660156 549.195313 256.726563 553.28125 C 259.710938 555.003906 262.699219 556.753906 265.515625 558.726563 C 273.851563 564.574219 280.007813 571.929688 278.089844 582.835938 M 231.070313 89.929688 C 237.09375 84.894531 244.585938 84.382813 252.5 87.988281 C 251.066406 85.964844 249.628906 83.9375 247.566406 81.027344 C 258.203125 77.394531 268.59375 73.839844 278.988281 70.285156 C 264.636719 91.023438 268.410156 111.019531 278.976563 130.097656 C 269.566406 128.90625 259.976563 127.851563 250.433594 126.449219 C 239.796875 124.882813 231.140625 120.296875 226.964844 109.617188 C 223.851563 101.65625 225.3125 94.742188 231.070313 89.929688 M 687.039063 359.285156 C 686.683594 182.332031 544.132813 33.171875 360.035156 32.796875 C 179.113281 32.429688 32.96875 179.578125 32.960938 360.296875 C 32.953125 537.273438 175.582031 686.285156 360.261719 687.203125 C 545.425781 685.945313 687.394531 536.089844 687.039063 359.285156 "/>
</g>
</svg>
